<svg width="110" height="16" viewBox="0 0 110 16" fill="none" xmlns="http://www.w3.org/2000/svg">
    <path
        d="M109.488 15H106.716L103.13 9.41198L99.5664 15H96.8604L101.898 7.62998L97.2564 0.47998H100.028L103.35 5.75998L106.716 0.47998H109.29L104.582 7.54198L109.488 15Z"
        fill="#222222" />
    <path
        d="M95.8233 15H93.9533L92.4133 10.974H85.8353L84.2953 15H82.4473L88.1013 0.47998H90.1913L95.8233 15ZM86.4733 9.32398H91.7753L89.1133 2.17398L86.4733 9.32398Z"
        fill="#222222" />
    <path
        d="M75.1201 0.47998C76.6015 0.47998 77.7895 0.861314 78.6841 1.62398C79.5788 2.38665 80.0261 3.42065 80.0261 4.72598C80.0261 6.03131 79.5714 7.05065 78.6621 7.78398C77.7675 8.50265 76.5795 8.86198 75.0981 8.86198L74.9441 8.97198H71.3801V15H69.6201V0.47998H75.1201ZM75.0981 7.32198C76.1395 7.32198 76.9095 7.10931 77.4081 6.68398C77.9215 6.24398 78.1781 5.59131 78.1781 4.72598C78.1781 3.86065 77.9215 3.21531 77.4081 2.78998C76.9095 2.34998 76.1395 2.12998 75.0981 2.12998H71.3801V7.32198H75.0981ZM76.1101 7.67398L80.9061 15H78.8161L74.6361 8.64198L76.1101 7.67398Z"
        fill="#222222" />
    <path d="M66.5509 0.47998V2.12998H61.4909V15H59.7309V2.12998H54.6709V0.47998H66.5509Z"
        fill="#222222" />
    <path
        d="M52.9649 11.2818C52.6569 12.1031 52.2169 12.8144 51.6449 13.4158C51.0729 14.0024 50.3982 14.4498 49.6209 14.7578C48.8582 15.0658 48.0222 15.2198 47.1129 15.2198C45.7342 15.2198 44.5389 14.9191 43.5269 14.3178C42.5295 13.7018 41.7522 12.8364 41.1949 11.7218C40.6522 10.6071 40.3809 9.27977 40.3809 7.73977C40.3809 6.19977 40.6522 4.87243 41.1949 3.75777C41.7522 2.6431 42.5295 1.7851 43.5269 1.18377C44.5389 0.567765 45.7195 0.259766 47.0689 0.259766C48.0075 0.259766 48.8435 0.391765 49.5769 0.655766C50.3102 0.905098 50.9335 1.28643 51.4469 1.79977C51.9749 2.29843 52.3929 2.91443 52.7009 3.64776L50.9629 4.46176C50.6402 3.62577 50.1709 2.9951 49.5549 2.56977C48.9535 2.12977 48.1689 1.90977 47.2009 1.90977C46.2182 1.90977 45.3529 2.14443 44.6049 2.61377C43.8569 3.06843 43.2702 3.72843 42.8449 4.59377C42.4342 5.4591 42.2289 6.50777 42.2289 7.73977C42.2289 8.9571 42.4269 10.0058 42.8229 10.8858C43.2189 11.7511 43.7835 12.4184 44.5169 12.8878C45.2502 13.3424 46.1155 13.5698 47.1129 13.5698C48.0809 13.5698 48.9242 13.3278 49.6429 12.8438C50.3615 12.3451 50.8822 11.6044 51.2049 10.6218L52.9649 11.2818Z"
        fill="#222222" />
    <path
        d="M27.5537 15V0.47998H37.7397V2.12998H29.3137V6.81598H35.8697V8.46598H29.3137V13.35H38.0697V15H27.5537Z"
        fill="#222222" />
    <path d="M16.1653 13.35H24.4813V15H14.4053V0.47998H16.1653V13.35Z" fill="#222222" />
    <path
        d="M0.375977 15V0.47998H10.562V2.12998H2.13598V6.81598H8.69198V8.46598H2.13598V13.35H10.892V15H0.375977Z"
        fill="#222222" />
</svg>