<svg width="24" height="24" viewBox="0 0 24 24" fill="none" xmlns="http://www.w3.org/2000/svg">
    <path
        d="M11.7111 8.09401L11.7545 8.75968L11.0319 8.67817C8.40184 8.36571 6.10411 7.30608 4.15321 5.52644L3.19944 4.64342L2.95377 5.2955C2.43353 6.7491 2.76591 8.2842 3.84974 9.31667C4.42779 9.88724 4.29773 9.96875 3.3006 9.62912C2.95377 9.52044 2.6503 9.43893 2.6214 9.47969C2.52024 9.57478 2.86707 10.811 3.14164 11.3001C3.51737 11.9793 4.28327 12.645 5.12144 13.039L5.82954 13.3514L4.99138 13.365C4.18212 13.365 4.15321 13.3786 4.23992 13.6639C4.52894 14.5469 5.67058 15.4843 6.94228 15.8918L7.83825 16.1771L7.05789 16.6118C5.9018 17.2367 4.54339 17.5899 3.18499 17.6171C2.53469 17.6307 2 17.685 2 17.7258C2 17.8616 3.76303 18.6224 4.78906 18.9213C7.86715 19.8043 11.5233 19.4239 14.269 17.916C16.2199 16.8428 18.1708 14.7099 19.0812 12.645C19.5725 11.5446 20.0639 9.53403 20.0639 8.56949C20.0639 7.94458 20.1072 7.86307 20.9165 7.11589C21.3934 6.68117 21.8414 6.2057 21.9281 6.06984C22.0726 5.81173 22.0581 5.81173 21.3211 6.04267C20.0928 6.45023 19.9194 6.39589 20.5263 5.78456C20.9743 5.34984 21.509 4.56191 21.509 4.33096C21.509 4.29021 21.2922 4.35813 21.0466 4.4804C20.7864 4.61625 20.2084 4.82002 19.7749 4.94229L18.9945 5.17323L18.2864 4.72493C17.8962 4.4804 17.3471 4.2087 17.058 4.12719C16.321 3.937 15.1939 3.96417 14.5291 4.18153C12.7227 4.79285 11.5811 6.36872 11.7111 8.09401Z"
        fill="#302F2D" />
</svg>