<svg width="24" height="24" viewBox="0 0 24 24" fill="none" xmlns="http://www.w3.org/2000/svg">
    <path
        d="M6.19727 4.59968C6.19699 5.15627 5.97562 5.68996 5.58185 6.08333C5.18809 6.47671 4.65418 6.69755 4.09759 6.69727C3.54099 6.69699 3.00731 6.47562 2.61393 6.08185C2.22056 5.68808 1.99972 5.15418 2 4.59758C2.00028 4.04099 2.22165 3.50731 2.61542 3.11393C3.00919 2.72056 3.54309 2.49972 4.09969 2.5C4.65628 2.50028 5.18996 2.72165 5.58334 3.11542C5.97671 3.50918 6.19755 4.04309 6.19727 4.59968V4.59968ZM6.26023 8.2513H2.06296V21.3887H6.26023V8.2513ZM12.8919 8.2513H8.71564V21.3887H12.8499V14.4947C12.8499 10.6542 17.8552 10.2975 17.8552 14.4947V21.3887H22V13.0677C22 6.59338 14.5918 6.83473 12.8499 10.0142L12.8919 8.2513V8.2513Z"
        fill="black" />
</svg>